<svg xmlns="http://www.w3.org/2000/svg" contentStyleType="text/css"
     height="970.2px" preserveAspectRatio="none" style="width:1147px;height:970px;background:#FFFFFF;" version="1.1"
     viewBox="0 0 1147 970" width="1147.5px" zoomAndPan="magnify">
    <defs/>
    <g><!--class FhysicsObject-->
        <g id="elem_FhysicsObject">
            <rect codeLine="8" fill="#F1F1F1" height="428.6566" id="FhysicsObject" rx="2.25" ry="2.25"
                  style="stroke:#181818;stroke-width:0.45;" width="342.7313" x="612" y="6.3"/>
            <ellipse cx="739.9811" cy="20.7" fill="#A9DCDF" rx="9.9" ry="9.9" style="stroke:#181818;stroke-width:0.9;"/>
            <path d="M741.9498,22.2891 L738.2232,22.2891 L737.8436,23.2172 L738.2232,23.2172 Q738.7717,23.2172 739.0107,23.4281 Q739.2498,23.6391 739.2498,23.9906 Q739.2498,24.3281 739.0107,24.5391 Q738.7717,24.75 738.2232,24.75 L736.1561,24.75 Q735.6076,24.75 735.3826,24.5391 Q735.1436,24.3281 735.1436,23.9766 Q735.1436,23.6391 735.3967,23.4281 Q735.6357,23.2031 736.1982,23.2172 L738.6029,17.2266 L737.6045,17.2266 Q737.0561,17.2266 736.817,17.0156 Q736.5779,16.8047 736.5779,16.4531 Q736.5779,16.1156 736.817,15.9047 Q737.0561,15.6938 737.6045,15.6938 L740.9092,15.6938 L743.9607,23.2172 Q744.4951,23.2172 744.6639,23.3438 Q745.0154,23.5828 745.0154,23.9906 Q745.0154,24.3281 744.7764,24.5391 Q744.5514,24.75 744.0029,24.75 L741.9357,24.75 Q741.3873,24.75 741.1482,24.5391 Q740.9092,24.3281 740.9092,23.9766 Q740.9092,23.6391 741.1482,23.4281 Q741.3873,23.2172 741.9357,23.2172 L742.3154,23.2172 L741.9498,22.2891 Z M741.3029,20.7563 L740.0795,17.7188 L738.842,20.7563 L741.3029,20.7563 Z "
                  fill="#000000"/>
            <text fill="#000000" font-family="sans-serif" font-size="12.6" font-style="italic" lengthAdjust="spacing"
                  textLength="79.1191" x="758.4311" y="25.9172">FhysicsObject
            </text>
            <line style="stroke:#181818;stroke-width:0.45;" x1="612.9" x2="953.8313" y1="35.1" y2="35.1"/>
            <ellipse cx="621.9" cy="48.4295" fill="none" rx="2.7" ry="2.7" style="stroke:#038048;stroke-width:0.9;"/>
            <text fill="#000000" font-family="sans-serif" font-size="12.6" lengthAdjust="spacing" textLength="93.854"
                  x="630" y="52.2967">position: Vector2
            </text>
            <ellipse cx="621.9" cy="65.1885" fill="none" rx="2.7" ry="2.7" style="stroke:#038048;stroke-width:0.9;"/>
            <text fill="#000000" font-family="sans-serif" font-size="12.6" lengthAdjust="spacing" textLength="92.439"
                  x="630" y="69.0557">velocity: Vector2
            </text>
            <ellipse cx="621.9" cy="81.9475" fill="none" rx="2.7" ry="2.7" style="stroke:#038048;stroke-width:0.9;"/>
            <text fill="#000000" font-family="sans-serif" font-size="12.6" lengthAdjust="spacing" textLength="118.3649"
                  x="630" y="85.8146">acceleration: Vector2
            </text>
            <ellipse cx="621.9" cy="98.7064" fill="none" rx="2.7" ry="2.7" style="stroke:#038048;stroke-width:0.9;"/>
            <text fill="#000000" font-family="sans-serif" font-size="12.6" lengthAdjust="spacing" textLength="65.8424"
                  x="630" y="102.5736">angle: Float
            </text>
            <ellipse cx="621.9" cy="115.4654" fill="none" rx="2.7" ry="2.7" style="stroke:#038048;stroke-width:0.9;"/>
            <text fill="#000000" font-family="sans-serif" font-size="12.6" lengthAdjust="spacing" textLength="121.1643"
                  x="630" y="119.3326">angularVelocity: Float
            </text>
            <ellipse cx="621.9" cy="132.2244" fill="none" rx="2.7" ry="2.7" style="stroke:#038048;stroke-width:0.9;"/>
            <text fill="#000000" font-family="sans-serif" font-size="12.6" lengthAdjust="spacing" textLength="65.1164"
                  x="630" y="136.0916">mass: Float
            </text>
            <ellipse cx="621.9" cy="148.9834" fill="none" rx="2.7" ry="2.7" style="stroke:#038048;stroke-width:0.9;"/>
            <text fill="#000000" font-family="sans-serif" font-size="12.6" lengthAdjust="spacing" textLength="69.3308"
                  x="630" y="152.8506">inertia: Float
            </text>
            <ellipse cx="621.9" cy="165.7424" fill="none" rx="2.7" ry="2.7" style="stroke:#038048;stroke-width:0.9;"/>
            <text fill="#000000" font-family="sans-serif" font-size="12.6" lengthAdjust="spacing" textLength="82.6506"
                  x="630" y="169.6096">static: Boolean
            </text>
            <ellipse cx="621.9" cy="182.5014" fill="none" rx="2.7" ry="2.7" style="stroke:#038048;stroke-width:0.9;"/>
            <text fill="#000000" font-family="sans-serif" font-size="12.6" lengthAdjust="spacing" textLength="89.6396"
                  x="630" y="186.3686">restitution: Float
            </text>
            <ellipse cx="621.9" cy="199.2604" fill="none" rx="2.7" ry="2.7" style="stroke:#038048;stroke-width:0.9;"/>
            <text fill="#000000" font-family="sans-serif" font-size="12.6" lengthAdjust="spacing" textLength="103.6362"
                  x="630" y="203.1275">frictionStatic: Float
            </text>
            <ellipse cx="621.9" cy="216.0193" fill="none" rx="2.7" ry="2.7" style="stroke:#038048;stroke-width:0.9;"/>
            <text fill="#000000" font-family="sans-serif" font-size="12.6" lengthAdjust="spacing" textLength="121.1335"
                  x="630" y="219.8865">frictionDynamic: Float
            </text>
            <ellipse cx="621.9" cy="232.7783" fill="none" rx="2.7" ry="2.7" style="stroke:#038048;stroke-width:0.9;"/>
            <text fill="#000000" font-family="sans-serif" font-size="12.6" lengthAdjust="spacing" textLength="155.5251"
                  x="630" y="236.6455">boundingBox: BoundingBox
            </text>
            <text fill="#000000" font-family="sans-serif" font-size="12.6" lengthAdjust="spacing" textLength="10.5021"
                  x="630" y="253.4045">...
            </text>
            <line style="stroke:#181818;stroke-width:0.45;" x1="612.9" x2="953.8313" y1="260.1668" y2="260.1668"/>
            <text fill="#000000" font-family="sans-serif" font-size="12.6" lengthAdjust="spacing" textLength="295.6816"
                  x="630" y="277.3635">&#169;FhysicsObject(Vector2, Vector2, Float, Float, Float)
            </text>
            <ellipse cx="621.9" cy="290.2553" fill="#84BE84" rx="2.7" ry="2.7"
                     style="stroke:#038048;stroke-width:0.9;"/>
            <text fill="#000000" font-family="sans-serif" font-size="12.6" lengthAdjust="spacing" textLength="46.9301"
                  x="630" y="294.1225">update()
            </text>
            <ellipse cx="621.9" cy="307.0143" fill="#84BE84" rx="2.7" ry="2.7"
                     style="stroke:#038048;stroke-width:0.9;"/>
            <text fill="#000000" font-family="sans-serif" font-size="12.6" font-style="italic" lengthAdjust="spacing"
                  textLength="152.6643" x="630" y="310.8814">project(Vector2): Projection
            </text>
            <ellipse cx="621.9" cy="323.7732" fill="#84BE84" rx="2.7" ry="2.7"
                     style="stroke:#038048;stroke-width:0.9;"/>
            <text fill="#000000" font-family="sans-serif" font-size="12.6" font-style="italic" lengthAdjust="spacing"
                  textLength="151.9875" x="630" y="327.6404">contains(Vector2): Boolean
            </text>
            <ellipse cx="621.9" cy="340.5322" fill="#84BE84" rx="2.7" ry="2.7"
                     style="stroke:#038048;stroke-width:0.9;"/>
            <text fill="#000000" font-family="sans-serif" font-size="12.6" font-style="italic" lengthAdjust="spacing"
                  textLength="121.8902" x="630" y="344.3994">updateBoundingBox()
            </text>
            <ellipse cx="621.9" cy="357.2912" fill="#84BE84" rx="2.7" ry="2.7"
                     style="stroke:#038048;stroke-width:0.9;"/>
            <text fill="#000000" font-family="sans-serif" font-size="12.6" font-style="italic" lengthAdjust="spacing"
                  textLength="231.8203" x="630" y="361.1584">findContactPoints(BorderEdge): Vector2[]
            </text>
            <ellipse cx="621.9" cy="374.0502" fill="#84BE84" rx="2.7" ry="2.7"
                     style="stroke:#038048;stroke-width:0.9;"/>
            <text fill="#000000" font-family="sans-serif" font-size="12.6" font-style="italic" lengthAdjust="spacing"
                  textLength="319.3313" x="630" y="377.9174">findContactPoints(FhysicsObject, CollisionInfo): Vector2[]
            </text>
            <ellipse cx="621.9" cy="390.8092" fill="#84BE84" rx="2.7" ry="2.7"
                     style="stroke:#038048;stroke-width:0.9;"/>
            <text fill="#000000" font-family="sans-serif" font-size="12.6" lengthAdjust="spacing" textLength="219.2019"
                  x="630" y="394.6764">testCollision(BorderEdge): CollisionInfo
            </text>
            <ellipse cx="621.9" cy="407.5682" fill="#84BE84" rx="2.7" ry="2.7"
                     style="stroke:#038048;stroke-width:0.9;"/>
            <text fill="#000000" font-family="sans-serif" font-size="12.6" font-style="italic" lengthAdjust="spacing"
                  textLength="231.0759" x="630" y="411.4354">testCollision(FhysicsObject): CollisionInfo
            </text>
            <text fill="#000000" font-family="sans-serif" font-size="12.6" lengthAdjust="spacing" textLength="10.5021"
                  x="630" y="428.1943">...
            </text>
        </g><!--class Circle-->
        <g id="elem_Circle">
            <rect codeLine="34" fill="#F1F1F1" height="210.7898" id="Circle" rx="2.25" ry="2.25"
                  style="stroke:#181818;stroke-width:0.45;" width="342.7313" x="799.2" y="513.9"/>
            <ellipse cx="950.6399" cy="528.3" fill="#ADD1B2" rx="9.9" ry="9.9"
                     style="stroke:#181818;stroke-width:0.9;"/>
            <path d="M953.129,524.5875 Q953.2696,524.3906 953.4384,524.2922 Q953.6071,524.1938 953.804,524.1938 Q954.1415,524.1938 954.3524,524.4328 Q954.5634,524.6578 954.5634,525.2063 L954.5634,526.5141 Q954.5634,527.0625 954.3524,527.3016 Q954.1415,527.5406 953.804,527.5406 Q953.4946,527.5406 953.3118,527.3578 Q953.129,527.1891 953.0306,526.725 Q952.9884,526.4016 952.8196,526.2328 Q952.5243,525.8953 951.9759,525.6984 Q951.4274,525.5016 950.8649,525.5016 Q950.1759,525.5016 949.5993,525.7969 Q949.0368,526.0922 948.5868,526.7672 Q948.1509,527.4422 948.1509,528.3703 L948.1509,529.3547 Q948.1509,530.4656 948.9524,531.2109 Q949.754,531.9422 951.1884,531.9422 Q952.0321,531.9422 952.6228,531.7172 Q952.9743,531.5766 953.354,531.1828 Q953.5931,530.9438 953.7196,530.8734 Q953.8603,530.8031 954.0431,530.8031 Q954.3384,530.8031 954.5634,531.0422 Q954.8024,531.2672 954.8024,531.5766 Q954.8024,531.8859 954.4931,532.2516 Q954.0431,532.7719 953.3259,533.0672 Q952.3556,533.475 951.1884,533.475 Q949.8243,533.475 948.7415,532.9125 Q947.8556,532.4625 947.2368,531.5063 Q946.6181,530.5359 946.6181,529.3828 L946.6181,528.3422 Q946.6181,527.1469 947.1665,526.1203 Q947.729,525.0797 948.7134,524.5313 Q949.6978,523.9688 950.8087,523.9688 Q951.4696,523.9688 952.0462,524.1234 Q952.6368,524.2641 953.129,524.5875 Z "
                  fill="#000000"/>
            <text fill="#000000" font-family="sans-serif" font-size="12.6" lengthAdjust="spacing" textLength="32.2014"
                  x="969.0899" y="533.5172">Circle
            </text>
            <line style="stroke:#181818;stroke-width:0.45;" x1="800.1" x2="1141.0313" y1="542.7" y2="542.7"/>
            <ellipse cx="809.1" cy="556.0295" fill="none" rx="2.7" ry="2.7" style="stroke:#038048;stroke-width:0.9;"/>
            <text fill="#000000" font-family="sans-serif" font-size="12.6" lengthAdjust="spacing" textLength="69.3308"
                  x="817.2" y="559.8967">radius: Float
            </text>
            <text fill="#000000" font-family="sans-serif" font-size="12.6" lengthAdjust="spacing" textLength="10.5021"
                  x="817.2" y="576.6557">...
            </text>
            <line style="stroke:#181818;stroke-width:0.45;" x1="800.1" x2="1141.0313" y1="583.418" y2="583.418"/>
            <text fill="#000000" font-family="sans-serif" font-size="12.6" lengthAdjust="spacing" textLength="128.3133"
                  x="817.2" y="600.6146">&#169;Circle(Vector2, Float)
            </text>
            <ellipse cx="809.1" cy="613.5064" fill="#84BE84" rx="2.7" ry="2.7"
                     style="stroke:#038048;stroke-width:0.9;"/>
            <text fill="#000000" font-family="sans-serif" font-size="12.6" lengthAdjust="spacing" textLength="152.6643"
                  x="817.2" y="617.3736">project(Vector2): Projection
            </text>
            <ellipse cx="809.1" cy="630.2654" fill="#84BE84" rx="2.7" ry="2.7"
                     style="stroke:#038048;stroke-width:0.9;"/>
            <text fill="#000000" font-family="sans-serif" font-size="12.6" lengthAdjust="spacing" textLength="151.9875"
                  x="817.2" y="634.1326">contains(Vector2): Boolean
            </text>
            <ellipse cx="809.1" cy="647.0244" fill="#84BE84" rx="2.7" ry="2.7"
                     style="stroke:#038048;stroke-width:0.9;"/>
            <text fill="#000000" font-family="sans-serif" font-size="12.6" lengthAdjust="spacing" textLength="121.8902"
                  x="817.2" y="650.8916">updateBoundingBox()
            </text>
            <ellipse cx="809.1" cy="663.7834" fill="#84BE84" rx="2.7" ry="2.7"
                     style="stroke:#038048;stroke-width:0.9;"/>
            <text fill="#000000" font-family="sans-serif" font-size="12.6" lengthAdjust="spacing" textLength="231.0759"
                  x="817.2" y="667.6506">testCollision(FhysicsObject): CollisionInfo
            </text>
            <ellipse cx="809.1" cy="680.5424" fill="#84BE84" rx="2.7" ry="2.7"
                     style="stroke:#038048;stroke-width:0.9;"/>
            <text fill="#000000" font-family="sans-serif" font-size="12.6" lengthAdjust="spacing" textLength="231.8203"
                  x="817.2" y="684.4096">findContactPoints(BorderEdge): Vector2[]
            </text>
            <ellipse cx="809.1" cy="697.3014" fill="#84BE84" rx="2.7" ry="2.7"
                     style="stroke:#038048;stroke-width:0.9;"/>
            <text fill="#000000" font-family="sans-serif" font-size="12.6" lengthAdjust="spacing" textLength="319.3313"
                  x="817.2" y="701.1686">findContactPoints(FhysicsObject, CollisionInfo): Vector2[]
            </text>
            <text fill="#000000" font-family="sans-serif" font-size="12.6" lengthAdjust="spacing" textLength="10.5021"
                  x="817.2" y="717.9275">...
            </text>
        </g><!--class Polygon-->
        <g id="elem_Polygon">
            <rect codeLine="47" fill="#F1F1F1" height="261.0668" id="Polygon" rx="2.25" ry="2.25"
                  style="stroke:#181818;stroke-width:0.45;" width="342.7313" x="424.8" y="488.7"/>
            <ellipse cx="569.5739" cy="503.1" fill="#ADD1B2" rx="9.9" ry="9.9"
                     style="stroke:#181818;stroke-width:0.9;"/>
            <path d="M572.0629,499.3875 Q572.2036,499.1906 572.3723,499.0922 Q572.5411,498.9938 572.7379,498.9938 Q573.0754,498.9938 573.2864,499.2328 Q573.4973,499.4578 573.4973,500.0063 L573.4973,501.3141 Q573.4973,501.8625 573.2864,502.1016 Q573.0754,502.3406 572.7379,502.3406 Q572.4286,502.3406 572.2458,502.1578 Q572.0629,501.9891 571.9645,501.525 Q571.9223,501.2016 571.7536,501.0328 Q571.4583,500.6953 570.9098,500.4984 Q570.3614,500.3016 569.7989,500.3016 Q569.1098,500.3016 568.5333,500.5969 Q567.9708,500.8922 567.5208,501.5672 Q567.0848,502.2422 567.0848,503.1703 L567.0848,504.1547 Q567.0848,505.2656 567.8864,506.0109 Q568.6879,506.7422 570.1223,506.7422 Q570.9661,506.7422 571.5567,506.5172 Q571.9083,506.3766 572.2879,505.9828 Q572.527,505.7438 572.6536,505.6734 Q572.7942,505.6031 572.977,505.6031 Q573.2723,505.6031 573.4973,505.8422 Q573.7364,506.0672 573.7364,506.3766 Q573.7364,506.6859 573.427,507.0516 Q572.977,507.5719 572.2598,507.8672 Q571.2895,508.275 570.1223,508.275 Q568.7583,508.275 567.6754,507.7125 Q566.7895,507.2625 566.1708,506.3063 Q565.552,505.3359 565.552,504.1828 L565.552,503.1422 Q565.552,501.9469 566.1004,500.9203 Q566.6629,499.8797 567.6473,499.3313 Q568.6317,498.7688 569.7426,498.7688 Q570.4036,498.7688 570.9801,498.9234 Q571.5708,499.0641 572.0629,499.3875 Z "
                  fill="#000000"/>
            <text fill="#000000" font-family="sans-serif" font-size="12.6" lengthAdjust="spacing" textLength="45.5335"
                  x="588.0239" y="508.3172">Polygon
            </text>
            <line style="stroke:#181818;stroke-width:0.45;" x1="425.7" x2="766.6313" y1="517.5" y2="517.5"/>
            <ellipse cx="434.7" cy="530.8295" fill="none" rx="2.7" ry="2.7" style="stroke:#038048;stroke-width:0.9;"/>
            <text fill="#000000" font-family="sans-serif" font-size="12.6" lengthAdjust="spacing" textLength="100.8369"
                  x="442.8" y="534.6967">vertices: Vector2[]
            </text>
            <text fill="#000000" font-family="sans-serif" font-size="12.6" lengthAdjust="spacing" textLength="10.5021"
                  x="442.8" y="551.4557">...
            </text>
            <line style="stroke:#181818;stroke-width:0.45;" x1="425.7" x2="766.6313" y1="558.218" y2="558.218"/>
            <text fill="#000000" font-family="sans-serif" font-size="12.6" lengthAdjust="spacing" textLength="148.6468"
                  x="442.8" y="575.4146">&#169;Polygon(Vector2[], Float)
            </text>
            <text fill="#000000" font-family="sans-serif" font-size="12.6" lengthAdjust="spacing" textLength="284.509"
                  x="442.8" y="592.1736">&#169;Polygon(Vector2, Vector2, Vector2[], Float, Float)
            </text>
            <ellipse cx="434.7" cy="605.0654" fill="#84BE84" rx="2.7" ry="2.7"
                     style="stroke:#038048;stroke-width:0.9;"/>
            <text fill="#000000" font-family="sans-serif" font-size="12.6" lengthAdjust="spacing" textLength="152.6643"
                  x="442.8" y="608.9326">project(Vector2): Projection
            </text>
            <ellipse cx="434.7" cy="621.8244" fill="#84BE84" rx="2.7" ry="2.7"
                     style="stroke:#038048;stroke-width:0.9;"/>
            <text fill="#000000" font-family="sans-serif" font-size="12.6" lengthAdjust="spacing" textLength="151.9875"
                  x="442.8" y="625.6916">contains(Vector2): Boolean
            </text>
            <ellipse cx="434.7" cy="638.5834" fill="#84BE84" rx="2.7" ry="2.7"
                     style="stroke:#038048;stroke-width:0.9;"/>
            <text fill="#000000" font-family="sans-serif" font-size="12.6" lengthAdjust="spacing" textLength="121.8902"
                  x="442.8" y="642.4506">updateBoundingBox()
            </text>
            <ellipse cx="434.7" cy="655.3424" fill="#84BE84" rx="2.7" ry="2.7"
                     style="stroke:#038048;stroke-width:0.9;"/>
            <text fill="#000000" font-family="sans-serif" font-size="12.6" lengthAdjust="spacing" textLength="231.0759"
                  x="442.8" y="659.2096">testCollision(FhysicsObject): CollisionInfo
            </text>
            <ellipse cx="434.7" cy="672.1014" fill="#84BE84" rx="2.7" ry="2.7"
                     style="stroke:#038048;stroke-width:0.9;"/>
            <text fill="#000000" font-family="sans-serif" font-size="12.6" lengthAdjust="spacing" textLength="231.8203"
                  x="442.8" y="675.9686">findContactPoints(BorderEdge): Vector2[]
            </text>
            <ellipse cx="434.7" cy="688.8604" fill="#84BE84" rx="2.7" ry="2.7"
                     style="stroke:#038048;stroke-width:0.9;"/>
            <text fill="#000000" font-family="sans-serif" font-size="12.6" lengthAdjust="spacing" textLength="319.3313"
                  x="442.8" y="692.7275">findContactPoints(FhysicsObject, CollisionInfo): Vector2[]
            </text>
            <ellipse cx="434.7" cy="705.6193" fill="#84BE84" rx="2.7" ry="2.7"
                     style="stroke:#038048;stroke-width:0.9;"/>
            <text fill="#000000" font-family="sans-serif" font-size="12.6" lengthAdjust="spacing" textLength="200.2711"
                  x="442.8" y="709.4865">getTransformedVertices(): Vector2[]
            </text>
            <ellipse cx="434.7" cy="722.3783" fill="#84BE84" rx="2.7" ry="2.7"
                     style="stroke:#038048;stroke-width:0.9;"/>
            <text fill="#000000" font-family="sans-serif" font-size="12.6" lengthAdjust="spacing" textLength="138.6677"
                  x="442.8" y="726.2455">getAxes(): List&lt;Vector2&gt;
            </text>
            <text fill="#000000" font-family="sans-serif" font-size="12.6" lengthAdjust="spacing" textLength="10.5021"
                  x="442.8" y="743.0045">...
            </text>
        </g><!--class ConvexPolygon-->
        <g id="elem_ConvexPolygon">
            <rect codeLine="63" fill="#F1F1F1" height="93.477" id="ConvexPolygon" rx="2.25" ry="2.25"
                  style="stroke:#181818;stroke-width:0.45;" width="202.1687" x="625.5" y="837"/>
            <ellipse cx="678.6316" cy="851.4" fill="#ADD1B2" rx="9.9" ry="9.9"
                     style="stroke:#181818;stroke-width:0.9;"/>
            <path d="M681.1207,847.6875 Q681.2613,847.4906 681.4301,847.3922 Q681.5988,847.2938 681.7957,847.2938 Q682.1332,847.2938 682.3441,847.5328 Q682.5551,847.7578 682.5551,848.3063 L682.5551,849.6141 Q682.5551,850.1625 682.3441,850.4016 Q682.1332,850.6406 681.7957,850.6406 Q681.4863,850.6406 681.3035,850.4578 Q681.1207,850.2891 681.0223,849.825 Q680.9801,849.5016 680.8113,849.3328 Q680.516,848.9953 679.9676,848.7984 Q679.4191,848.6016 678.8566,848.6016 Q678.1676,848.6016 677.591,848.8969 Q677.0285,849.1922 676.5785,849.8672 Q676.1426,850.5422 676.1426,851.4703 L676.1426,852.4547 Q676.1426,853.5656 676.9441,854.3109 Q677.7457,855.0422 679.1801,855.0422 Q680.0238,855.0422 680.6145,854.8172 Q680.966,854.6766 681.3457,854.2828 Q681.5848,854.0438 681.7113,853.9734 Q681.852,853.9031 682.0348,853.9031 Q682.3301,853.9031 682.5551,854.1422 Q682.7941,854.3672 682.7941,854.6766 Q682.7941,854.9859 682.4848,855.3516 Q682.0348,855.8719 681.3176,856.1672 Q680.3473,856.575 679.1801,856.575 Q677.816,856.575 676.7332,856.0125 Q675.8473,855.5625 675.2285,854.6063 Q674.6098,853.6359 674.6098,852.4828 L674.6098,851.4422 Q674.6098,850.2469 675.1582,849.2203 Q675.7207,848.1797 676.7051,847.6313 Q677.6895,847.0688 678.8004,847.0688 Q679.4613,847.0688 680.0379,847.2234 Q680.6285,847.3641 681.1207,847.6875 Z "
                  fill="#000000"/>
            <text fill="#000000" font-family="sans-serif" font-size="12.6" lengthAdjust="spacing" textLength="88.2554"
                  x="697.0816" y="856.6172">ConvexPolygon
            </text>
            <line style="stroke:#181818;stroke-width:0.45;" x1="626.4" x2="826.7687" y1="865.8" y2="865.8"/>
            <text fill="#000000" font-family="sans-serif" font-size="12.6" lengthAdjust="spacing" textLength="10.5021"
                  x="630.9" y="882.9967">...
            </text>
            <line style="stroke:#181818;stroke-width:0.45;" x1="626.4" x2="826.7687" y1="889.759" y2="889.759"/>
            <text fill="#000000" font-family="sans-serif" font-size="12.6" lengthAdjust="spacing" textLength="191.3687"
                  x="630.9" y="906.9557">&#169;ConvexPolygon(Vector2[], Float)
            </text>
            <text fill="#000000" font-family="sans-serif" font-size="12.6" lengthAdjust="spacing" textLength="10.5021"
                  x="630.9" y="923.7146">...
            </text>
        </g><!--class Rectangle-->
        <g id="elem_Rectangle">
            <rect codeLine="69" fill="#F1F1F1" height="160.5129" id="Rectangle" rx="2.25" ry="2.25"
                  style="stroke:#181818;stroke-width:0.45;" width="246.2748" x="859.95" y="803.7"/>
            <ellipse cx="950.8939" cy="818.1" fill="#ADD1B2" rx="9.9" ry="9.9"
                     style="stroke:#181818;stroke-width:0.9;"/>
            <path d="M953.383,814.3875 Q953.5236,814.1906 953.6924,814.0922 Q953.8611,813.9938 954.058,813.9938 Q954.3955,813.9938 954.6064,814.2328 Q954.8174,814.4578 954.8174,815.0063 L954.8174,816.3141 Q954.8174,816.8625 954.6064,817.1016 Q954.3955,817.3406 954.058,817.3406 Q953.7486,817.3406 953.5658,817.1578 Q953.383,816.9891 953.2846,816.525 Q953.2424,816.2016 953.0736,816.0328 Q952.7783,815.6953 952.2299,815.4984 Q951.6814,815.3016 951.1189,815.3016 Q950.4299,815.3016 949.8533,815.5969 Q949.2908,815.8922 948.8408,816.5672 Q948.4049,817.2422 948.4049,818.1703 L948.4049,819.1547 Q948.4049,820.2656 949.2064,821.0109 Q950.008,821.7422 951.4424,821.7422 Q952.2861,821.7422 952.8768,821.5172 Q953.2283,821.3766 953.608,820.9828 Q953.8471,820.7438 953.9736,820.6734 Q954.1143,820.6031 954.2971,820.6031 Q954.5924,820.6031 954.8174,820.8422 Q955.0564,821.0672 955.0564,821.3766 Q955.0564,821.6859 954.7471,822.0516 Q954.2971,822.5719 953.5799,822.8672 Q952.6096,823.275 951.4424,823.275 Q950.0783,823.275 948.9955,822.7125 Q948.1096,822.2625 947.4908,821.3063 Q946.8721,820.3359 946.8721,819.1828 L946.8721,818.1422 Q946.8721,816.9469 947.4205,815.9203 Q947.983,814.8797 948.9674,814.3313 Q949.9518,813.7688 951.0627,813.7688 Q951.7236,813.7688 952.3002,813.9234 Q952.8908,814.0641 953.383,814.3875 Z "
                  fill="#000000"/>
            <text fill="#000000" font-family="sans-serif" font-size="12.6" lengthAdjust="spacing" textLength="56.7369"
                  x="969.3439" y="823.3172">Rectangle
            </text>
            <line style="stroke:#181818;stroke-width:0.45;" x1="860.85" x2="1105.3248" y1="832.5" y2="832.5"/>
            <ellipse cx="869.85" cy="845.8295" fill="none" rx="2.7" ry="2.7" style="stroke:#038048;stroke-width:0.9;"/>
            <text fill="#000000" font-family="sans-serif" font-size="12.6" lengthAdjust="spacing" textLength="64.4273"
                  x="877.95" y="849.6967">width: Float
            </text>
            <ellipse cx="869.85" cy="862.5885" fill="none" rx="2.7" ry="2.7" style="stroke:#038048;stroke-width:0.9;"/>
            <text fill="#000000" font-family="sans-serif" font-size="12.6" lengthAdjust="spacing" textLength="69.3431"
                  x="877.95" y="866.4557">height: Float
            </text>
            <text fill="#000000" font-family="sans-serif" font-size="12.6" lengthAdjust="spacing" textLength="10.5021"
                  x="877.95" y="883.2146">...
            </text>
            <line style="stroke:#181818;stroke-width:0.45;" x1="860.85" x2="1105.3248" y1="889.977" y2="889.977"/>
            <text fill="#000000" font-family="sans-serif" font-size="12.6" lengthAdjust="spacing" textLength="222.8748"
                  x="877.95" y="907.1736">&#169;Rectangle(Vector2, Float, Float, Float)
            </text>
            <ellipse cx="869.85" cy="920.0654" fill="#84BE84" rx="2.7" ry="2.7"
                     style="stroke:#038048;stroke-width:0.9;"/>
            <text fill="#000000" font-family="sans-serif" font-size="12.6" lengthAdjust="spacing" textLength="151.9875"
                  x="877.95" y="923.9326">contains(Vector2): Boolean
            </text>
            <ellipse cx="869.85" cy="936.8244" fill="#84BE84" rx="2.7" ry="2.7"
                     style="stroke:#038048;stroke-width:0.9;"/>
            <text fill="#000000" font-family="sans-serif" font-size="12.6" lengthAdjust="spacing" textLength="138.6677"
                  x="877.95" y="940.6916">getAxes(): List&lt;Vector2&gt;
            </text>
            <text fill="#000000" font-family="sans-serif" font-size="12.6" lengthAdjust="spacing" textLength="10.5021"
                  x="877.95" y="957.4506">...
            </text>
        </g><!--class ConcavePolygon-->
        <g id="elem_ConcavePolygon">
            <rect codeLine="79" fill="#F1F1F1" height="126.9949" id="ConcavePolygon" rx="2.25" ry="2.25"
                  style="stroke:#181818;stroke-width:0.45;" width="256.7892" x="337.5" y="820.35"/>
            <ellipse cx="414.4381" cy="834.75" fill="#ADD1B2" rx="9.9" ry="9.9"
                     style="stroke:#181818;stroke-width:0.9;"/>
            <path d="M416.9272,831.0375 Q417.0678,830.8406 417.2366,830.7422 Q417.4053,830.6438 417.6022,830.6438 Q417.9397,830.6438 418.1506,830.8828 Q418.3616,831.1078 418.3616,831.6563 L418.3616,832.9641 Q418.3616,833.5125 418.1506,833.7516 Q417.9397,833.9906 417.6022,833.9906 Q417.2928,833.9906 417.11,833.8078 Q416.9272,833.6391 416.8288,833.175 Q416.7866,832.8516 416.6178,832.6828 Q416.3225,832.3453 415.7741,832.1484 Q415.2256,831.9516 414.6631,831.9516 Q413.9741,831.9516 413.3975,832.2469 Q412.835,832.5422 412.385,833.2172 Q411.9491,833.8922 411.9491,834.8203 L411.9491,835.8047 Q411.9491,836.9156 412.7506,837.6609 Q413.5522,838.3922 414.9866,838.3922 Q415.8303,838.3922 416.4209,838.1672 Q416.7725,838.0266 417.1522,837.6328 Q417.3913,837.3938 417.5178,837.3234 Q417.6584,837.2531 417.8413,837.2531 Q418.1366,837.2531 418.3616,837.4922 Q418.6006,837.7172 418.6006,838.0266 Q418.6006,838.3359 418.2913,838.7016 Q417.8413,839.2219 417.1241,839.5172 Q416.1538,839.925 414.9866,839.925 Q413.6225,839.925 412.5397,839.3625 Q411.6538,838.9125 411.035,837.9563 Q410.4163,836.9859 410.4163,835.8328 L410.4163,834.7922 Q410.4163,833.5969 410.9647,832.5703 Q411.5272,831.5297 412.5116,830.9813 Q413.4959,830.4188 414.6069,830.4188 Q415.2678,830.4188 415.8444,830.5734 Q416.435,830.7141 416.9272,831.0375 Z "
                  fill="#000000"/>
            <text fill="#000000" font-family="sans-serif" font-size="12.6" lengthAdjust="spacing" textLength="95.2629"
                  x="432.8881" y="839.9672">ConcavePolygon
            </text>
            <line style="stroke:#181818;stroke-width:0.45;" x1="338.4" x2="593.3892" y1="849.15" y2="849.15"/>
            <ellipse cx="347.4" cy="862.4795" fill="none" rx="2.7" ry="2.7" style="stroke:#038048;stroke-width:0.9;"/>
            <text fill="#000000" font-family="sans-serif" font-size="12.6" lengthAdjust="spacing" textLength="181.4265"
                  x="355.5" y="866.3467">subPolygons: List&lt;SubPolygon&gt;
            </text>
            <text fill="#000000" font-family="sans-serif" font-size="12.6" lengthAdjust="spacing" textLength="10.5021"
                  x="355.5" y="883.1057">...
            </text>
            <line style="stroke:#181818;stroke-width:0.45;" x1="338.4" x2="593.3892" y1="889.868" y2="889.868"/>
            <text fill="#000000" font-family="sans-serif" font-size="12.6" lengthAdjust="spacing" textLength="233.3892"
                  x="355.5" y="907.0646">&#169;ConcavePolygon(Vector2[], Int[][], Float)
            </text>
            <ellipse cx="347.4" cy="919.9564" fill="#84BE84" rx="2.7" ry="2.7"
                     style="stroke:#038048;stroke-width:0.9;"/>
            <text fill="#000000" font-family="sans-serif" font-size="12.6" lengthAdjust="spacing" textLength="121.8902"
                  x="355.5" y="923.8236">updateBoundingBox()
            </text>
            <text fill="#000000" font-family="sans-serif" font-size="12.6" lengthAdjust="spacing" textLength="10.5021"
                  x="355.5" y="940.5826">...
            </text>
        </g><!--class SubPolygon-->
        <g id="elem_SubPolygon">
            <rect codeLine="87" fill="#F1F1F1" height="126.9949" id="SubPolygon" rx="2.25" ry="2.25"
                  style="stroke:#181818;stroke-width:0.45;" width="299.5418" x="6.3" y="820.35"/>
            <ellipse cx="118.2696" cy="834.75" fill="#ADD1B2" rx="9.9" ry="9.9"
                     style="stroke:#181818;stroke-width:0.9;"/>
            <path d="M120.7586,831.0375 Q120.8993,830.8406 121.068,830.7422 Q121.2368,830.6438 121.4336,830.6438 Q121.7711,830.6438 121.9821,830.8828 Q122.193,831.1078 122.193,831.6563 L122.193,832.9641 Q122.193,833.5125 121.9821,833.7516 Q121.7711,833.9906 121.4336,833.9906 Q121.1243,833.9906 120.9415,833.8078 Q120.7586,833.6391 120.6602,833.175 Q120.618,832.8516 120.4493,832.6828 Q120.154,832.3453 119.6055,832.1484 Q119.0571,831.9516 118.4946,831.9516 Q117.8055,831.9516 117.229,832.2469 Q116.6665,832.5422 116.2165,833.2172 Q115.7805,833.8922 115.7805,834.8203 L115.7805,835.8047 Q115.7805,836.9156 116.5821,837.6609 Q117.3836,838.3922 118.818,838.3922 Q119.6618,838.3922 120.2524,838.1672 Q120.604,838.0266 120.9836,837.6328 Q121.2227,837.3938 121.3493,837.3234 Q121.4899,837.2531 121.6727,837.2531 Q121.968,837.2531 122.193,837.4922 Q122.4321,837.7172 122.4321,838.0266 Q122.4321,838.3359 122.1227,838.7016 Q121.6727,839.2219 120.9555,839.5172 Q119.9852,839.925 118.818,839.925 Q117.454,839.925 116.3711,839.3625 Q115.4852,838.9125 114.8665,837.9563 Q114.2477,836.9859 114.2477,835.8328 L114.2477,834.7922 Q114.2477,833.5969 114.7961,832.5703 Q115.3586,831.5297 116.343,830.9813 Q117.3274,830.4188 118.4383,830.4188 Q119.0993,830.4188 119.6758,830.5734 Q120.2665,830.7141 120.7586,831.0375 Z "
                  fill="#000000"/>
            <text fill="#000000" font-family="sans-serif" font-size="12.6" lengthAdjust="spacing" textLength="67.9526"
                  x="136.7196" y="839.9672">SubPolygon
            </text>
            <line style="stroke:#181818;stroke-width:0.45;" x1="7.2" x2="304.9418" y1="849.15" y2="849.15"/>
            <ellipse cx="16.2" cy="862.4795" fill="none" rx="2.7" ry="2.7" style="stroke:#038048;stroke-width:0.9;"/>
            <text fill="#000000" font-family="sans-serif" font-size="12.6" lengthAdjust="spacing" textLength="137.9909"
                  x="24.3" y="866.3467">parent: ConcavePolygon
            </text>
            <rect fill="none" height="5.4" style="stroke:#C82930;stroke-width:0.9;" width="5.4" x="13.5" y="876.5385"/>
            <text fill="#000000" font-family="sans-serif" font-size="12.6" lengthAdjust="spacing" textLength="135.8684"
                  x="24.3" y="883.1057">relativePosition: Vector2
            </text>
            <text fill="#000000" font-family="sans-serif" font-size="12.6" lengthAdjust="spacing" textLength="10.5021"
                  x="24.3" y="899.8646">...
            </text>
            <line style="stroke:#181818;stroke-width:0.45;" x1="7.2" x2="304.9418" y1="906.627" y2="906.627"/>
            <text fill="#000000" font-family="sans-serif" font-size="12.6" lengthAdjust="spacing" textLength="288.7418"
                  x="11.7" y="923.8236">&#169;SubPolygon(Vector2[], ConcavePolygon, Vector2)
            </text>
            <text fill="#000000" font-family="sans-serif" font-size="12.6" lengthAdjust="spacing" textLength="10.5021"
                  x="11.7" y="940.5826">...
            </text>
        </g><!--reverse link FhysicsObject to Circle-->
        <g id="link_FhysicsObject_Circle">
            <path codeLine="96" d="M877.05,450.927 C877.05,478.332 877.05,489.159 877.05,513.72 " fill="none"
                  id="FhysicsObject-backto-Circle" style="stroke:#181818;stroke-width:0.9;"/>
            <polygon fill="none" points="877.05,434.727,871.65,450.927,882.45,450.927,877.05,434.727"
                     style="stroke:#181818;stroke-width:0.9;"/>
        </g><!--reverse link Polygon to ConcavePolygon-->
        <g id="link_Polygon_ConcavePolygon">
            <path codeLine="97" d="M509.4,766.152 C509.4,790.623 509.4,798.975 509.4,820.242 " fill="none"
                  id="Polygon-backto-ConcavePolygon" style="stroke:#181818;stroke-width:0.9;"/>
            <polygon fill="none" points="509.4,749.952,504,766.152,514.8,766.152,509.4,749.952"
                     style="stroke:#181818;stroke-width:0.9;"/>
        </g><!--reverse link Polygon to ConvexPolygon-->
        <g id="link_Polygon_ConvexPolygon">
            <path codeLine="98" d="M672.903,766.152 C672.903,797.265 672.903,812.304 672.903,836.757 " fill="none"
                  id="Polygon-backto-ConvexPolygon" style="stroke:#181818;stroke-width:0.9;"/>
            <polygon fill="none" points="672.903,749.952,667.503,766.152,678.303,766.152,672.903,749.952"
                     style="stroke:#181818;stroke-width:0.9;"/>
        </g><!--reverse link FhysicsObject to Polygon-->
        <g id="link_FhysicsObject_Polygon">
            <path codeLine="99" d="M689.85,450.927 C689.85,469.287 689.85,471.285 689.85,488.673 " fill="none"
                  id="FhysicsObject-backto-Polygon" style="stroke:#181818;stroke-width:0.9;"/>
            <polygon fill="none" points="689.85,434.727,684.45,450.927,695.25,450.927,689.85,434.727"
                     style="stroke:#181818;stroke-width:0.9;"/>
        </g><!--reverse link Polygon to Rectangle-->
        <g id="link_Polygon_Rectangle">
            <path codeLine="100"
                  d="M720.297,766.08 C720.297,800.829 720.297,812.7 720.297,812.7 C720.297,812.7 791.541,812.7 859.86,812.7 "
                  fill="none" id="Polygon-backto-Rectangle" style="stroke:#181818;stroke-width:0.9;"/>
            <polygon fill="none" points="720.297,749.88,714.897,766.08,725.697,766.08,720.297,749.88"
                     style="stroke:#181818;stroke-width:0.9;"/>
        </g><!--reverse link Polygon to SubPolygon-->
        <g id="link_Polygon_SubPolygon">
            <path codeLine="101"
                  d="M408.321,619.2 C284.814,619.2 156.15,619.2 156.15,619.2 C156.15,619.2 156.15,741.789 156.15,820.089 "
                  fill="none" id="Polygon-backto-SubPolygon" style="stroke:#181818;stroke-width:0.9;"/>
            <polygon fill="none" points="424.521,619.2,408.321,613.8,408.321,624.6,424.521,619.2"
                     style="stroke:#181818;stroke-width:0.9;"/>
        </g><!--link SubPolygon to ConcavePolygon-->
        <g id="link_SubPolygon_ConcavePolygon">
            <path codeLine="102" d="M306.189,883.8 C316.602,883.8 327.033,883.8 337.311,883.8 " fill="none"
                  id="SubPolygon-ConcavePolygon" style="stroke:#000082;stroke-width:0.9;"/>
        </g><!--SRC=[xLRDZjem4BxdAIprqA1TKBMd2bL8XNQbbIeLTIikAmx6CU3MU90zeI3A0_Kr-cHrVZ1sOc2tlJONoFnyC_u-Zns4DK4WCq245Sc4vWm5gCHy5sfDDLqHAHJ7tPeJqBY49A4pWveo94nIOyZzScS4CvzdtsmcsIV4FZTa3KOKE7qoiMRGTxLzmoKmWRkcdJB69TSqbaFLGl8-kPT0yMJA9TKJX-OxLxQjq69Ne57Gq6ZGLcDzCWIGdAhQghb1WNdLXny-rw9avh5EY_a-x1HTDPqpo5Kcr688swAOUodT-xdWCZkGNgzNll_-5V2PrapS4lUdX0v_EdMbV9rHv6drkZ_gT2ZaqE33TVfaN5aAgLlH31HIeOmNxfCKn5OrlMN5oi-5oaO5ACCn28Kc7OBEkFwOBNZ7oVqqVKvcmCyj6O6KmjXbFAWvjB1k25ezNKnODaXjbmupWxBnv1Mtyr5hUKYIQZn6GZF9tLneceays9tj7L2bfA7YHuslAdbLllEQlNpDBvJsd_MCSpm6kLk0SYHlYcbdtBIoMrJNcQcB2zXk-RqnR6Ryboa0M73yggaoSz0hdargGT9uvFjjvVea3Bwh_ODBCmLgmxUXwf4nygFEA1p7_s9Zoql7xQWV8iDbUAmlkLWiyV8aEw3qESVtrGtnTrGnkk7D2J7vh3QP6klHMGRd-VIWV48V53vD6ynUk1cYZPxgdxuXgEOA-uqrbCwklQUblOSBQ-n3eztz2T_lF8HsKnrlzFNJgpVsUNitJUfJtN-wUVVdW8IVGqc3VY_kk9fmBySY0j-5MgTTsumx8daSduc8zIlTihkUIdy0]-->
    </g>
</svg>