<svg xmlns="http://www.w3.org/2000/svg" contentStyleType="text/css"
     height="760.5px" preserveAspectRatio="none" style="width:849px;height:760px;background:#FFFFFF;" version="1.1"
     viewBox="0 0 849 760" width="849.6px" zoomAndPan="magnify">
    <defs/>
    <g><!--class FhysicsCore-->
        <g id="elem_FhysicsCore">
            <rect codeLine="7" fill="#FFFFFF" height="113.0915" id="FhysicsCore" rx="2.25" ry="2.25"
                  style="stroke:#000000;stroke-width:0.9;" width="100.3509" x="624.6" y="211.5"/>
            <ellipse cx="636.3" cy="230.2194" fill="#FFFFFF" rx="8.1" ry="8.1"
                     style="stroke:#000000;stroke-width:0.9;"/>
            <path d="M638.7891,231.5975 L640.9406,232.2725 Q640.4484,234.0584 639.2953,234.9303 Q638.1563,235.8022 636.3844,235.8022 Q634.2047,235.8022 632.7984,234.3116 Q631.4063,232.8209 631.4063,230.2334 Q631.4063,227.5053 632.8125,226.0006 Q634.2188,224.4819 636.525,224.4819 Q638.5359,224.4819 639.7875,225.6631 Q640.5328,226.3663 640.9125,227.6881 L638.7188,228.2084 Q638.5219,227.3506 637.9031,226.8584 Q637.2984,226.3663 636.4125,226.3663 Q635.1891,226.3663 634.4297,227.2522 Q633.6844,228.1241 633.6844,230.0788 Q633.6844,232.1459 634.4297,233.0319 Q635.175,233.9178 636.3703,233.9178 Q637.2563,233.9178 637.8891,233.3553 Q638.5219,232.7928 638.7891,231.5975 Z "
                  fill="#000000"/>
            <text fill="#000000" font-family="Verdana" font-size="10.8" font-style="italic" lengthAdjust="spacing"
                  textLength="63.102" x="653.1245" y="226.858">&#171;singleton&#187;
            </text>
            <text fill="#000000" font-family="Verdana" font-size="12.6" lengthAdjust="spacing" textLength="75.1509"
                  x="647.1" y="241.7933">FhysicsCore
            </text>
            <line style="stroke:#000000;stroke-width:0.9;" x1="625.5" x2="724.0509" y1="248.9388" y2="248.9388"/>
            <text fill="#000000" font-family="Verdana" font-size="12.6" lengthAdjust="spacing" textLength="64.1566"
                  x="630" y="265.2064">+dt: Float
            </text>
            <text fill="#000000" font-family="Verdana" font-size="12.6" lengthAdjust="spacing" textLength="13.7505"
                  x="630" y="280.5196">...
            </text>
            <line style="stroke:#000000;stroke-width:0.9;" x1="625.5" x2="724.0509" y1="286.7651" y2="286.7651"/>
            <text fill="#000000" font-family="Verdana" font-size="12.6" lengthAdjust="spacing" textLength="65.4671"
                  x="630" y="303.0328">+update()
            </text>
            <text fill="#000000" font-family="Verdana" font-size="12.6" lengthAdjust="spacing" textLength="13.7505"
                  x="630" y="318.346">...
            </text>
        </g><!--class QuadTree-->
        <g id="elem_QuadTree">
            <rect codeLine="14" fill="#FFFFFF" height="204.9706" id="QuadTree" rx="2.25" ry="2.25"
                  style="stroke:#000000;stroke-width:0.9;" width="266.3191" x="306.9" y="378.9"/>
            <ellipse cx="405.9536" cy="397.6194" fill="#FFFFFF" rx="8.1" ry="8.1"
                     style="stroke:#000000;stroke-width:0.9;"/>
            <path d="M408.4427,398.9975 L410.5942,399.6725 Q410.1021,401.4584 408.9489,402.3303 Q407.8099,403.2022 406.038,403.2022 Q403.8583,403.2022 402.4521,401.7116 Q401.0599,400.2209 401.0599,397.6334 Q401.0599,394.9053 402.4661,393.4006 Q403.8724,391.8819 406.1786,391.8819 Q408.1896,391.8819 409.4411,393.0631 Q410.1864,393.7663 410.5661,395.0881 L408.3724,395.6084 Q408.1755,394.7506 407.5567,394.2584 Q406.9521,393.7663 406.0661,393.7663 Q404.8427,393.7663 404.0833,394.6522 Q403.338,395.5241 403.338,397.4788 Q403.338,399.5459 404.0833,400.4319 Q404.8286,401.3178 406.0239,401.3178 Q406.9099,401.3178 407.5427,400.7553 Q408.1755,400.1928 408.4427,398.9975 Z "
                  fill="#000000"/>
            <text fill="#000000" font-family="Verdana" font-size="10.8" font-style="italic" lengthAdjust="spacing"
                  textLength="63.102" x="420.8836" y="394.258">&#171;singleton&#187;
            </text>
            <text fill="#000000" font-family="Verdana" font-size="12.6" lengthAdjust="spacing" textLength="61.4619"
                  x="421.7036" y="409.1933">QuadTree
            </text>
            <line style="stroke:#000000;stroke-width:0.9;" x1="307.8" x2="572.3191" y1="416.3388" y2="416.3388"/>
            <text fill="#000000" font-family="Verdana" font-size="12.6" lengthAdjust="spacing" textLength="90.6979"
                  x="312.3" y="432.6064">+capacity: Int
            </text>
            <text fill="#000000" font-family="Verdana" font-size="12.6" lengthAdjust="spacing" textLength="91.6207"
                  x="312.3" y="447.9196">-root: QTNode
            </text>
            <text fill="#000000" font-family="Verdana" font-size="12.6" lengthAdjust="spacing" textLength="146.1489"
                  x="312.3" y="463.2328">-nodes: List&lt;QTNode&gt;
            </text>
            <text fill="#000000" font-family="Verdana" font-size="12.6" lengthAdjust="spacing" textLength="255.5191"
                  x="312.3" y="478.546">-objectLists: List&lt;List&lt;FhysicsObject&gt;&gt;
            </text>
            <text fill="#000000" font-family="Verdana" font-size="12.6" lengthAdjust="spacing" textLength="13.7505"
                  x="312.3" y="493.8592">...
            </text>
            <line style="stroke:#000000;stroke-width:0.9;" x1="307.8" x2="572.3191" y1="500.1047" y2="500.1047"/>
            <text fill="#000000" font-family="Verdana" font-size="12.6" lengthAdjust="spacing" textLength="174.5481"
                  x="312.3" y="516.3724">+insert(obj: FhysicsObject)
            </text>
            <text fill="#000000" font-family="Verdana" font-size="12.6" lengthAdjust="spacing" textLength="186.4529"
                  x="312.3" y="531.6855">+remove(obj: FhysicsObject)
            </text>
            <text fill="#000000" font-family="Verdana" font-size="12.6" lengthAdjust="spacing" textLength="65.2271"
                  x="312.3" y="546.9987">+rebuild()
            </text>
            <text fill="#000000" font-family="Verdana" font-size="12.6" lengthAdjust="spacing" textLength="65.4671"
                  x="312.3" y="562.3119">+update()
            </text>
            <text fill="#000000" font-family="Verdana" font-size="12.6" lengthAdjust="spacing" textLength="13.7505"
                  x="312.3" y="577.6251">...
            </text>
        </g><!--class QTNode-->
        <g id="elem_QTNode">
            <rect codeLine="27" fill="#FFFFFF" height="116.1659" id="QTNode" rx="2.25" ry="2.25"
                  style="stroke:#000000;stroke-width:0.9;" width="145.1733" x="283.05" y="638.1"/>
            <ellipse cx="327.2063" cy="650.7" fill="#FFFFFF" rx="8.1" ry="8.1"
                     style="stroke:#000000;stroke-width:0.9;"/>
            <path d="M329.6953,652.0781 L331.8469,652.7531 Q331.3547,654.5391 330.2016,655.4109 Q329.0625,656.2828 327.2906,656.2828 Q325.1109,656.2828 323.7047,654.7922 Q322.3125,653.3016 322.3125,650.7141 Q322.3125,647.9859 323.7188,646.4813 Q325.125,644.9625 327.4313,644.9625 Q329.4422,644.9625 330.6938,646.1438 Q331.4391,646.8469 331.8188,648.1688 L329.625,648.6891 Q329.4281,647.8313 328.8094,647.3391 Q328.2047,646.8469 327.3188,646.8469 Q326.0953,646.8469 325.3359,647.7328 Q324.5906,648.6047 324.5906,650.5594 Q324.5906,652.6266 325.3359,653.5125 Q326.0813,654.3984 327.2766,654.3984 Q328.1625,654.3984 328.7953,653.8359 Q329.4281,653.2734 329.6953,652.0781 Z "
                  fill="#000000"/>
            <text fill="#000000" font-family="Verdana" font-size="12.6" lengthAdjust="spacing" textLength="50.1108"
                  x="342.9563" y="655.7111">QTNode
            </text>
            <line style="stroke:#000000;stroke-width:0.9;" x1="283.95" x2="427.3233" y1="663.3" y2="663.3"/>
            <text fill="#000000" font-family="Verdana" font-size="12.6" lengthAdjust="spacing" textLength="134.3733"
                  x="288.45" y="679.5677">+bbox: BoundingBox
            </text>
            <text fill="#000000" font-family="Verdana" font-size="12.6" lengthAdjust="spacing" textLength="72.9483"
                  x="288.45" y="694.8809">+index: Int
            </text>
            <text fill="#000000" font-family="Verdana" font-size="12.6" lengthAdjust="spacing" textLength="107.4384"
                  x="288.45" y="710.194">+isLeaf: Boolean
            </text>
            <line style="stroke:#000000;stroke-width:0.9;" x1="283.95" x2="427.3233" y1="716.4396" y2="716.4396"/>
            <text fill="#000000" font-family="Verdana" font-size="12.6" lengthAdjust="spacing" textLength="111.1729"
                  x="288.45" y="732.7072">+convertToLeaf()
            </text>
            <text fill="#000000" font-family="Verdana" font-size="12.6" lengthAdjust="spacing" textLength="128.7501"
                  x="288.45" y="748.0204">+convertToBranch()
            </text>
        </g><!--class CollisionFinder-->
        <g id="elem_CollisionFinder">
            <rect codeLine="35" fill="#FFFFFF" height="113.0915" id="CollisionFinder" rx="2.25" ry="2.25"
                  style="stroke:#000000;stroke-width:0.9;" width="305.2573" x="287.55" y="211.5"/>
            <ellipse cx="390.8703" cy="230.2194" fill="#FFFFFF" rx="8.1" ry="8.1"
                     style="stroke:#000000;stroke-width:0.9;"/>
            <path d="M393.3593,231.5975 L395.5109,232.2725 Q395.0187,234.0584 393.8656,234.9303 Q392.7265,235.8022 390.9546,235.8022 Q388.775,235.8022 387.3687,234.3116 Q385.9765,232.8209 385.9765,230.2334 Q385.9765,227.5053 387.3828,226.0006 Q388.789,224.4819 391.0953,224.4819 Q393.1062,224.4819 394.3578,225.6631 Q395.1031,226.3663 395.4828,227.6881 L393.289,228.2084 Q393.0921,227.3506 392.4734,226.8584 Q391.8687,226.3663 390.9828,226.3663 Q389.7593,226.3663 389,227.2522 Q388.2546,228.1241 388.2546,230.0788 Q388.2546,232.1459 389,233.0319 Q389.7453,233.9178 390.9406,233.9178 Q391.8265,233.9178 392.4593,233.3553 Q393.0921,232.7928 393.3593,231.5975 Z "
                  fill="#000000"/>
            <text fill="#000000" font-family="Verdana" font-size="10.8" font-style="italic" lengthAdjust="spacing"
                  textLength="63.102" x="421.0027" y="226.858">&#171;singleton&#187;
            </text>
            <text fill="#000000" font-family="Verdana" font-size="12.6" lengthAdjust="spacing" textLength="91.8668"
                  x="406.6203" y="241.7933">CollisionFinder
            </text>
            <line style="stroke:#000000;stroke-width:0.9;" x1="288.45" x2="591.9073" y1="248.9388" y2="248.9388"/>
            <line style="stroke:#000000;stroke-width:0.9;" x1="288.45" x2="591.9073" y1="256.1388" y2="256.1388"/>
            <text fill="#000000" font-family="Verdana" font-size="12.6" lengthAdjust="spacing" textLength="265.5167"
                  x="292.95" y="272.4064">+testCollision(Circle, Circle): CollisionInfo
            </text>
            <text fill="#000000" font-family="Verdana" font-size="12.6" lengthAdjust="spacing" textLength="279.987"
                  x="292.95" y="287.7196">+testCollision(Circle, Polygon): CollisionInfo
            </text>
            <text fill="#000000" font-family="Verdana" font-size="12.6" lengthAdjust="spacing" textLength="294.4573"
                  x="292.95" y="303.0328">+testCollision(Polygon, Polygon): CollisionInfo
            </text>
            <text fill="#000000" font-family="Verdana" font-size="12.6" lengthAdjust="spacing" textLength="13.7505"
                  x="292.95" y="318.346">...
            </text>
        </g><!--class CollisionSolver-->
        <g id="elem_CollisionSolver">
            <rect codeLine="42" fill="#FFFFFF" height="113.0915" id="CollisionSolver" rx="2.25" ry="2.25"
                  style="stroke:#000000;stroke-width:0.9;" width="202.0271" x="54" y="211.5"/>
            <ellipse cx="105.3791" cy="230.2194" fill="#FFFFFF" rx="8.1" ry="8.1"
                     style="stroke:#000000;stroke-width:0.9;"/>
            <path d="M107.8682,231.5975 L110.0197,232.2725 Q109.5275,234.0584 108.3744,234.9303 Q107.2354,235.8022 105.4635,235.8022 Q103.2838,235.8022 101.8775,234.3116 Q100.4854,232.8209 100.4854,230.2334 Q100.4854,227.5053 101.8916,226.0006 Q103.2979,224.4819 105.6041,224.4819 Q107.615,224.4819 108.8666,225.6631 Q109.6119,226.3663 109.9916,227.6881 L107.7979,228.2084 Q107.601,227.3506 106.9822,226.8584 Q106.3775,226.3663 105.4916,226.3663 Q104.2682,226.3663 103.5088,227.2522 Q102.7635,228.1241 102.7635,230.0788 Q102.7635,232.1459 103.5088,233.0319 Q104.2541,233.9178 105.4494,233.9178 Q106.3354,233.9178 106.9682,233.3553 Q107.601,232.7928 107.8682,231.5975 Z "
                  fill="#000000"/>
            <text fill="#000000" font-family="Verdana" font-size="10.8" font-style="italic" lengthAdjust="spacing"
                  textLength="63.102" x="135.8376" y="226.858">&#171;singleton&#187;
            </text>
            <text fill="#000000" font-family="Verdana" font-size="12.6" lengthAdjust="spacing" textLength="92.5189"
                  x="121.1291" y="241.7933">CollisionSolver
            </text>
            <line style="stroke:#000000;stroke-width:0.9;" x1="54.9" x2="255.1271" y1="248.9388" y2="248.9388"/>
            <line style="stroke:#000000;stroke-width:0.9;" x1="54.9" x2="255.1271" y1="256.1388" y2="256.1388"/>
            <text fill="#000000" font-family="Verdana" font-size="12.6" lengthAdjust="spacing" textLength="191.2271"
                  x="59.4" y="272.4064">+solveCollisions(CollisionInfo)
            </text>
            <text fill="#000000" font-family="Verdana" font-size="12.6" lengthAdjust="spacing" textLength="114.4582"
                  x="59.4" y="287.7196">-solveImpulse(...)
            </text>
            <text fill="#000000" font-family="Verdana" font-size="12.6" lengthAdjust="spacing" textLength="110.2315"
                  x="59.4" y="303.0328">-solveFriction(...)
            </text>
            <text fill="#000000" font-family="Verdana" font-size="12.6" lengthAdjust="spacing" textLength="13.7505"
                  x="59.4" y="318.346">...
            </text>
        </g><!--class CollisionInfo-->
        <g id="elem_CollisionInfo">
            <rect codeLine="49" fill="#FFFFFF" height="146.7923" id="CollisionInfo" rx="2.25" ry="2.25"
                  style="stroke:#000000;stroke-width:0.9;" width="393.1866" x="100.35" y="10.8"/>
            <ellipse cx="254.6609" cy="23.4" fill="#FFFFFF" rx="8.1" ry="8.1" style="stroke:#000000;stroke-width:0.9;"/>
            <path d="M257.15,24.7781 L259.3015,25.4531 Q258.8093,27.2391 257.6562,28.1109 Q256.5171,28.9828 254.7453,28.9828 Q252.5656,28.9828 251.1593,27.4922 Q249.7671,26.0016 249.7671,23.4141 Q249.7671,20.6859 251.1734,19.1813 Q252.5796,17.6625 254.8859,17.6625 Q256.8968,17.6625 258.1484,18.8438 Q258.8937,19.5469 259.2734,20.8688 L257.0796,21.3891 Q256.8828,20.5313 256.264,20.0391 Q255.6593,19.5469 254.7734,19.5469 Q253.55,19.5469 252.7906,20.4328 Q252.0453,21.3047 252.0453,23.2594 Q252.0453,25.3266 252.7906,26.2125 Q253.5359,27.0984 254.7312,27.0984 Q255.6171,27.0984 256.25,26.5359 Q256.8828,25.9734 257.15,24.7781 Z "
                  fill="#000000"/>
            <text fill="#000000" font-family="Verdana" font-size="12.6" lengthAdjust="spacing" textLength="77.8148"
                  x="270.4109" y="28.4111">CollisionInfo
            </text>
            <line style="stroke:#000000;stroke-width:0.9;" x1="101.25" x2="492.6366" y1="36" y2="36"/>
            <text fill="#000000" font-family="Verdana" font-size="12.6" lengthAdjust="spacing" textLength="135.8745"
                  x="105.75" y="52.2677">+objA: FhysicsObject
            </text>
            <text fill="#000000" font-family="Verdana" font-size="12.6" lengthAdjust="spacing" textLength="135.8991"
                  x="105.75" y="67.5809">+objB: FhysicsObject
            </text>
            <text fill="#000000" font-family="Verdana" font-size="12.6" lengthAdjust="spacing" textLength="113.4246"
                  x="105.75" y="82.894">+normal: Vector2
            </text>
            <text fill="#000000" font-family="Verdana" font-size="12.6" lengthAdjust="spacing" textLength="87.4863"
                  x="105.75" y="98.2072">+depth: Float
            </text>
            <line style="stroke:#000000;stroke-width:0.9;" x1="101.25" x2="492.6366" y1="104.4527" y2="104.4527"/>
            <text fill="#000000" font-family="Verdana" font-size="12.6" lengthAdjust="spacing" textLength="382.3866"
                  x="105.75" y="120.7204">&#169;CollisionInfo(FhysicsObject, FhysicsObject, Vector2, Float)
            </text>
            <text fill="#000000" font-family="Verdana" font-size="12.6" lengthAdjust="spacing" textLength="101.8582"
                  x="105.75" y="136.0336">&#169;CollisionInfo()
            </text>
            <text fill="#000000" font-family="Verdana" font-size="12.6" lengthAdjust="spacing" textLength="156.9094"
                  x="105.75" y="151.3468">+hasCollision(): Boolean
            </text>
        </g><!--class FhysicsObject-->
        <g id="elem_FhysicsObject">
            <rect codeLine="59" fill="#FFFFFF" height="116.1659" id="FhysicsObject" rx="2.25" ry="2.25"
                  style="stroke:#000000;stroke-width:0.9;" width="129.5095" x="459.9" y="638.1"/>
            <ellipse cx="479.4057" cy="650.7" fill="#FFFFFF" rx="8.1" ry="8.1"
                     style="stroke:#000000;stroke-width:0.9;"/>
            <path d="M481.8948,652.0781 L484.0464,652.7531 Q483.5542,654.5391 482.4011,655.4109 Q481.262,656.2828 479.4901,656.2828 Q477.3104,656.2828 475.9042,654.7922 Q474.512,653.3016 474.512,650.7141 Q474.512,647.9859 475.9182,646.4813 Q477.3245,644.9625 479.6307,644.9625 Q481.6417,644.9625 482.8932,646.1438 Q483.6386,646.8469 484.0182,648.1688 L481.8245,648.6891 Q481.6276,647.8313 481.0089,647.3391 Q480.4042,646.8469 479.5182,646.8469 Q478.2948,646.8469 477.5354,647.7328 Q476.7901,648.6047 476.7901,650.5594 Q476.7901,652.6266 477.5354,653.5125 Q478.2807,654.3984 479.4761,654.3984 Q480.362,654.3984 480.9948,653.8359 Q481.6276,653.2734 481.8948,652.0781 Z "
                  fill="#000000"/>
            <text fill="#000000" font-family="Verdana" font-size="12.6" lengthAdjust="spacing" textLength="86.9634"
                  x="491.9404" y="655.7111">FhysicsObject
            </text>
            <line style="stroke:#000000;stroke-width:0.9;" x1="460.8" x2="588.5095" y1="663.3" y2="663.3"/>
            <text fill="#000000" font-family="Verdana" font-size="12.6" lengthAdjust="spacing" textLength="118.7095"
                  x="465.3" y="679.5677">+position: Vector2
            </text>
            <text fill="#000000" font-family="Verdana" font-size="12.6" lengthAdjust="spacing" textLength="117.6574"
                  x="465.3" y="694.8809">+velocity: Vector2
            </text>
            <text fill="#000000" font-family="Verdana" font-size="12.6" lengthAdjust="spacing" textLength="13.7505"
                  x="465.3" y="710.194">...
            </text>
            <line style="stroke:#000000;stroke-width:0.9;" x1="460.8" x2="588.5095" y1="716.4396" y2="716.4396"/>
            <text fill="#000000" font-family="Verdana" font-size="12.6" lengthAdjust="spacing" textLength="65.4671"
                  x="465.3" y="732.7072">+update()
            </text>
            <text fill="#000000" font-family="Verdana" font-size="12.6" lengthAdjust="spacing" textLength="13.7505"
                  x="465.3" y="748.0204">...
            </text>
        </g><!--link FhysicsCore to QuadTree-->
        <g id="link_FhysicsCore_QuadTree">
            <path codeLine="67" d="M675,325.08 C675,388.269 675,481.5 675,481.5 C675,481.5 631.755,481.5 578.736,481.5 "
                  fill="none" id="FhysicsCore-to-QuadTree"
                  style="stroke:#000000;stroke-width:0.9;stroke-dasharray:7.0,7.0;"/>
            <polygon fill="#000000" points="573.336,481.5,581.436,485.1,577.836,481.5,581.436,477.9,573.336,481.5"
                     style="stroke:#000000;stroke-width:0.9;"/>
            <text fill="#000000" font-family="Verdana" font-size="11.7" lengthAdjust="spacing" textLength="166.8278"
                  x="675.9" y="451.4848">ruft rebuild() &amp; update() auf
            </text>
        </g><!--link QuadTree to QTNode-->
        <g id="link_QuadTree_QTNode">
            <path codeLine="68" d="M367.425,584.109 C367.425,602.649 367.425,615.978 367.425,632.673 " fill="none"
                  id="QuadTree-to-QTNode" style="stroke:#000000;stroke-width:0.9;"/>
            <polygon fill="#000000"
                     points="367.425,638.073,371.025,629.973,367.425,633.573,363.825,629.973,367.425,638.073"
                     style="stroke:#000000;stroke-width:0.9;"/>
        </g><!--link QuadTree to FhysicsObject-->
        <g id="link_QuadTree_FhysicsObject">
            <path codeLine="69" d="M516.6,584.109 C516.6,602.649 516.6,615.978 516.6,632.673 " fill="none"
                  id="QuadTree-to-FhysicsObject" style="stroke:#000000;stroke-width:0.9;"/>
            <polygon fill="#000000" points="516.6,638.073,520.2,629.973,516.6,633.573,513,629.973,516.6,638.073"
                     style="stroke:#000000;stroke-width:0.9;"/>
            <text fill="#000000" font-family="Verdana" font-size="11.7" lengthAdjust="spacing" textLength="99.1072"
                  x="416.7" y="608.4538">ruft update() auf
            </text>
        </g><!--reverse link CollisionFinder to QuadTree-->
        <g id="link_CollisionFinder_QuadTree">
            <path codeLine="70" d="M440.1,330.48 C440.1,347.022 440.1,360.216 440.1,378.657 " fill="none"
                  id="CollisionFinder-backto-QuadTree"
                  style="stroke:#000000;stroke-width:0.9;stroke-dasharray:7.0,7.0;"/>
            <polygon fill="#000000" points="440.1,325.08,436.5,333.18,440.1,329.58,443.7,333.18,440.1,325.08"
                     style="stroke:#000000;stroke-width:0.9;"/>
            <text fill="#000000" font-family="Verdana" font-size="11.7" lengthAdjust="spacing" textLength="129.5169"
                  x="310.5" y="349.2268">ruft testCollision() auf
            </text>
        </g><!--reverse link CollisionSolver to QuadTree-->
        <g id="link_CollisionSolver_QuadTree">
            <path codeLine="71"
                  d="M154.8,330.48 C154.8,393.669 154.8,481.5 154.8,481.5 C154.8,481.5 232.389,481.5 306.639,481.5 "
                  fill="none" id="CollisionSolver-backto-QuadTree"
                  style="stroke:#000000;stroke-width:0.9;stroke-dasharray:7.0,7.0;"/>
            <polygon fill="#000000" points="154.8,325.08,151.2,333.18,154.8,329.58,158.4,333.18,154.8,325.08"
                     style="stroke:#000000;stroke-width:0.9;"/>
            <text fill="#000000" font-family="Verdana" font-size="11.7" lengthAdjust="spacing" textLength="143.6278"
                  x="10.8" y="476.5678">ruft solveCollisions() auf
            </text>
        </g><!--reverse link CollisionInfo to CollisionFinder-->
        <g id="link_CollisionInfo_CollisionFinder">
            <path codeLine="72" d="M390.6,163.089 C390.6,180.909 390.6,194.292 390.6,211.221 " fill="none"
                  id="CollisionInfo-backto-CollisionFinder"
                  style="stroke:#000000;stroke-width:0.9;stroke-dasharray:7.0,7.0;"/>
            <polygon fill="#000000" points="390.6,157.689,387,165.789,390.6,162.189,394.2,165.789,390.6,157.689"
                     style="stroke:#000000;stroke-width:0.9;"/>
            <text fill="#000000" font-family="Verdana" font-size="11.7" lengthAdjust="spacing" textLength="61.7049"
                  x="328.5" y="181.8178">verwendet
            </text>
        </g><!--reverse link CollisionInfo to CollisionSolver-->
        <g id="link_CollisionInfo_CollisionSolver">
            <path codeLine="73" d="M177.975,163.089 C177.975,180.909 177.975,194.292 177.975,211.221 " fill="none"
                  id="CollisionInfo-backto-CollisionSolver"
                  style="stroke:#000000;stroke-width:0.9;stroke-dasharray:7.0,7.0;"/>
            <polygon fill="#000000"
                     points="177.975,157.689,174.375,165.789,177.975,162.189,181.575,165.789,177.975,157.689"
                     style="stroke:#000000;stroke-width:0.9;"/>
            <text fill="#000000" font-family="Verdana" font-size="11.7" lengthAdjust="spacing" textLength="61.7049"
                  x="115.875" y="181.8178">verwendet
            </text>
        </g><!--SRC=[bLJ1Zfim4Btp5TDB2-g6hNf44T9cfKYHLcrN6_Nkm2IuDHvacpJfAX_Kt-YNrO0n0MMptHoICE_DUpF3s1yAOogTtDvMWabJboBEgBpD1DDwbdEsKwmCWdUcm1B1KhWCz4ykAsRZ8BX4SwmGI9c2pe0s_SuOnJUrmLL6yed_HlWK12q2o-AeUQRlII7Cvw2vt0aq925DuJa0-_a8kKbWAOYPzlbvor7a9uZZsE5rbJE3OTJ19TeA77xgRHvhbgyLlkoHiOfbt1mJMCdEPmQAo3e_hhzGZYuaxL-Tm0FNPju1gKDeymCpqm0ztdwv_hwsQ9g-q06N6fK9hKO2eup84HIMjCUhX4tDHHv6RvX9Mx-Vm6P3XmGMLClS3cX11rzRZeTXB3QW7v1j6oe9PB8V8CczxM5D3UZByD65OZ8hRDpRtvCGN7EIoyP1lVXc36hZkU4zLvd06-X-esIGMSajNKtvHkAu8_bVEOvxFUdoM3tlYSJ-Ib-wWJrPXoFzo6rLIrgLLIqqXjPc55ygdfccMW-yKb6ZxFtjBjrDbcb05fSHIQfa8e7lDaJgSty-iJB5-H7z-sTa6OwaRc3owCHkEe7eeaA_JmNJmqkAXXqyJUwJJjltMf7cpQIcbUzHK7Vgp-Dll67Ehx0uJeUx9W5LRyrmDE6z5m9MRmDFdCtI_fePnKRDEBNB2d5jZQSdocMCD_jgebjPbpZTq2vrwZ9MQ5SiiODLlz329fXglqB_1m00]-->
    </g>
</svg>